{"title":"MTV Roadies X1 Season 11 - Episode 4 - Pune Auditions HQ 480p -A","uid":9620339,"size":325452585,"categoryP":"video","categoryS":"tv_shows","magnet":"?xt=urn:btih:781a1fcc298a045f36701a936e04814d03f673d3&amp;dn=MTV+Roadies+X1+Season+11+-+Episode+4+-+Pune+Auditions+HQ+480p+-A&amp;tr=udp%3A%2F%2Ftracker.openbittorrent.com%3A80&amp;tr=udp%3A%2F%2Fopen.demonii.com%3A1337&amp;tr=udp%3A%2F%2Ftracker.coppersurfer.tk%3A6969&amp;tr=udp%3A%2F%2Fexodus.desync.com%3A6969","seeders":2,"leechers":0,"uploader":"ashish.p","files":1,"time":1392491808,"description":"General \n\nComplete name : MTV Roadies X1 Season 11 - Episode 4 - Pune Auditions HQ 480p -AshishRocks- { DAKU RG }\nFormat : MPEG-4 \nFormat profile : Base Media \nCodec ID : isom \nFile size : 310 MiB \nDuration : 43mn 5s \nOverall bit rate mode : Variable \nOverall bit rate : 1 007 Kbps \nEncoded date : UTC 2014-02-14 09:30:43 \nTagged date : UTC 2014-02-14 09:30:43 \n\nVideo \n\nID : 1 \nFormat : AVC \nFormat/Info : Advanced Video Codec \nFormat profile : &lt;a class=&quot;__cf_email__&quot; href=&quot;/cdn-cgi/l/email-protection&quot; data-cfemail=&quot;cf82aea6a18f83fce1ff&quot;&gt;[email&amp;#160;protected]&lt;/a&gt;&lt;script cf-hash='f9e31' type=&quot;text/javascript&quot;&gt;\n/* &lt;![CDATA[ */!function(){try{var t=&quot;currentScript&quot;in document?document.currentScript:function(){for(var t=document.getElementsByTagName(&quot;script&quot;),e=t.length;e--;)if(t[e].getAttribute(&quot;cf-hash&quot;))return t[e]}();if(t&amp;&amp;t.previousSibling){var e,r,n,i,c=t.previousSibling,a=c.getAttribute(&quot;data-cfemail&quot;);if(a){for(e=&quot;&quot;,r=parseInt(a.substr(0,2),16),n=2;a.length-n;n+=2)i=parseInt(a.substr(n,2),16)^r,e+=String.fromCharCode(i);e=document.createTextNode(e),c.parentNode.replaceChild(e,c)}}}catch(u){}}();/* ]]&gt; */&lt;/script&gt; \nFormat settings, CABAC : Yes \nFormat settings, ReFrames : 3 frames \nCodec ID : avc1 \nCodec ID/Info : Advanced Video Coding \nDuration : 43mn 5s \nBit rate : 878 Kbps \nWidth : 854 pixels \nHeight : 480 pixels \nDisplay aspect ratio : 16:9 \nOriginal display aspect ratio : 16:9 \nFrame rate mode : Constant \nFrame rate : 25.000 fps \nColor space : YUV \nChroma subsampling : 4:2:0 \nBit depth : 8 bits \nScan type : Progressive \nBits/(Pixel*Frame) : 0.086 \nStream size : 271 MiB (87%) \nEncoded date : UTC 2014-02-14 09:30:43 \nTagged date : UTC 2014-02-14 09:30:43 \n\nAudio \n\nID : 2 \nFormat : AAC \nFormat/Info : Advanced Audio Codec \nFormat profile : LC \nCodec ID : 40 \nDuration : 43mn 5s \nBit rate mode : Variable \nBit rate : 126 Kbps \nChannel(s) : 2 channels \nChannel positions : Front: L R \nSampling rate : 44.1 KHz \nCompression mode : Lossy \nStream size : 38.7 MiB (12%) \nEncoded date : UTC 2014-02-14 09:30:34 \nTagged date : UTC 2014-02-14 09:30:34 \n","torrent":{"xt":"urn:btih:781a1fcc298a045f36701a936e04814d03f673d3","amp;dn":"MTV+Roadies+X1+Season+11+-+Episode+4+-+Pune+Auditions+HQ+480p+-A","amp;tr":["udp%3A%2F%2Ftracker.openbittorrent.com%3A80","udp%3A%2F%2Fopen.demonii.com%3A1337","udp%3A%2F%2Ftracker.coppersurfer.tk%3A6969","udp%3A%2F%2Fexodus.desync.com%3A6969"],"infoHash":"781a1fcc298a045f36701a936e04814d03f673d3","infoHashBuffer":{"type":"Buffer","data":[120,26,31,204,41,138,4,95,54,112,26,147,110,4,129,77,3,246,115,211]},"announce":[],"urlList":[]}}